<svg xmlns="http://www.w3.org/2000/svg" width="17.231" height="14" viewBox="0 0 17.231 14"><defs><style>.a{fill:#241600;}</style></defs><path class="a" d="M17.231,49.657a7.365,7.365,0,0,1-2.035.558,3.513,3.513,0,0,0,1.554-1.952,7.059,7.059,0,0,1-2.24.855A3.532,3.532,0,0,0,8.4,51.533a3.637,3.637,0,0,0,.082.806A10,10,0,0,1,1.2,48.644a3.533,3.533,0,0,0,1.086,4.721,3.489,3.489,0,0,1-1.6-.435v.039a3.549,3.549,0,0,0,2.83,3.471,3.526,3.526,0,0,1-.926.116,3.123,3.123,0,0,1-.669-.06,3.566,3.566,0,0,0,3.3,2.461,7.1,7.1,0,0,1-4.38,1.507A6.616,6.616,0,0,1,0,60.415,9.945,9.945,0,0,0,5.419,62,9.985,9.985,0,0,0,15.473,51.948c0-.156-.005-.307-.013-.457A7.047,7.047,0,0,0,17.231,49.657Z" transform="translate(0 -48)"/></svg>