<svg xmlns="http://www.w3.org/2000/svg" width="14" height="14" viewBox="0 0 14 14"><defs><style>.a{fill:#241600;}</style></defs><g transform="translate(0 0)"><g transform="translate(0 0)"><path class="a" d="M9.625,0H4.375A4.375,4.375,0,0,0,0,4.375v5.25A4.375,4.375,0,0,0,4.375,14h5.25A4.375,4.375,0,0,0,14,9.625V4.375A4.375,4.375,0,0,0,9.625,0Zm3.062,9.625a3.066,3.066,0,0,1-3.062,3.062H4.375A3.066,3.066,0,0,1,1.313,9.625V4.375A3.066,3.066,0,0,1,4.375,1.313h5.25a3.066,3.066,0,0,1,3.062,3.062Z" transform="translate(0 0)"/></g><g transform="translate(3.048 3.048)"><path class="a" d="M131.952,128a3.952,3.952,0,1,0,3.952,3.952A3.952,3.952,0,0,0,131.952,128Zm0,6.422a2.47,2.47,0,1,1,2.47-2.47A2.473,2.473,0,0,1,131.952,134.422Z" transform="translate(-128 -128)"/></g><g transform="translate(10.201 2.746)"><circle class="a" cx="0.527" cy="0.527" r="0.527"/></g></g></svg>