<svg xmlns="http://www.w3.org/2000/svg" width="90" height="90" viewBox="0 0 90 90"><defs><style>.a{fill:#fec165;}.b{fill:#fdb441;}.c{fill:#faf0b0;}.d{fill:#f8e883;}.e{fill:#df646e;}.f{fill:#dc4955;}.g{fill:#e27f86;}.h{fill:#92e0c4;}.i{fill:#77d1b3;}.j{fill:#f7e365;}</style></defs><circle class="a" cx="45" cy="45" r="45"/><path class="b" d="M132.825,0a44.788,44.788,0,0,0-25.579,7.976,43.134,43.134,0,1,1,0,74.048A45,45,0,1,0,132.825,0Z" transform="translate(-87.825)"/><circle class="c" cx="38.858" cy="38.858" r="38.858" transform="translate(6.142 6.142)"/><path class="d" d="M236.216,33.917c-.913,0-1.819.034-2.716.1a38.857,38.857,0,0,1,0,77.524c.9.062,1.8.1,2.716.1a38.858,38.858,0,0,0,0-77.716Z" transform="translate(-191.216 -27.775)"/><circle class="e" cx="3.505" cy="3.505" r="3.505" transform="translate(62.93 65.23) rotate(-76.7)"/><circle class="e" cx="3.761" cy="3.761" r="3.761" transform="translate(11.994 31.569)"/><path class="f" d="M77.181,174.33a3.742,3.742,0,0,0-2.172.691,3.759,3.759,0,0,1,0,6.14,3.761,3.761,0,1,0,2.172-6.831Z" transform="translate(-61.426 -142.761)"/><path class="f" d="M361.641,326.3a3.488,3.488,0,0,0-2.024.644,3.5,3.5,0,0,1,0,5.722,3.5,3.5,0,1,0,2.024-6.366Z" transform="translate(-294.495 -267.212)"/><circle class="e" cx="3.581" cy="3.581" r="3.581" transform="translate(62.417 29.617) rotate(-76.7)"/><path class="f" d="M359.066,128.961a3.563,3.563,0,0,0-2.067.658,3.579,3.579,0,0,1,0,5.845,3.58,3.58,0,1,0,2.067-6.5Z" transform="translate(-292.351 -105.608)"/><circle class="e" cx="2.228" cy="2.228" r="2.228" transform="translate(28.641 34.912)"/><circle class="g" cx="2.334" cy="2.334" r="2.334" transform="translate(11.509 56.272) rotate(-76.7)"/><circle class="g" cx="2.666" cy="2.666" r="2.666" transform="translate(42.479 58.286)"/><circle class="e" cx="2.159" cy="2.159" r="2.159" transform="translate(36.36 73.026) rotate(-45)"/><path class="e" d="M208.608,74.32a2.2,2.2,0,1,1-2.2-2.2A2.2,2.2,0,0,1,208.608,74.32Z" transform="translate(-167.224 -59.058)"/><ellipse class="g" cx="2.121" cy="2.122" rx="2.121" ry="2.122" transform="translate(69.67 36.397) rotate(-22.514)"/><circle class="e" cx="2.077" cy="2.077" r="2.077" transform="translate(70.524 52.06)"/><circle class="e" cx="2.799" cy="2.799" r="2.799" transform="translate(42.657 30.702) rotate(-82.996)"/><circle class="g" cx="2.966" cy="2.966" r="2.966" transform="translate(27.296 56.255) rotate(-76.7)"/><path class="h" d="M272.17,68.09c.772,1.484-.057,3.516-.416,4.264a.446.446,0,0,1-.474.247c-.819-.135-2.958-.622-3.731-2.106s.057-3.516.416-4.264a.446.446,0,0,1,.474-.247C269.259,66.119,271.4,66.606,272.17,68.09Z" transform="translate(-218.839 -54.03)"/><path class="h" d="M320.329,273.955c1.577.042,2.873,1.655,3.325,2.293a.421.421,0,0,1-.013.5c-.486.614-1.866,2.155-3.443,2.113s-2.873-1.655-3.325-2.293a.421.421,0,0,1,.013-.5c.486-.614,1.866-2.155,3.443-2.113Z" transform="translate(-259.428 -224.345)"/><path class="i" d="M269.917,381.239c1.068,1.721.252,4.249-.114,5.185a.54.54,0,0,1-.55.341c-1-.088-3.628-.481-4.7-2.2s-.252-4.249.114-5.185a.54.54,0,0,1,.55-.341C266.223,379.125,268.85,379.518,269.917,381.239Z" transform="translate(-216.217 -310.396)"/><path class="h" d="M114.279,343.724c.16,1.766-1.47,3.424-2.124,4.013a.472.472,0,0,1-.564.051c-.749-.462-2.65-1.8-2.81-3.566s1.47-3.424,2.124-4.013a.472.472,0,0,1,.564-.051C112.218,340.62,114.119,341.958,114.279,343.724Z" transform="translate(-89.074 -278.502)"/><path class="i" d="M120.587,124.035c1.126,1.264.818,3.462.651,4.285a.451.451,0,0,1-.4.36c-.837.071-3.056.125-4.182-1.139s-.818-3.462-.651-4.285a.451.451,0,0,1,.4-.36C117.241,122.825,119.461,122.771,120.587,124.035Z" transform="translate(-94.857 -100.616)"/><path class="i" d="M320.791,193.638c1.574.347,2.562,2.215,2.892,2.943a.43.43,0,0,1-.111.5c-.606.522-2.288,1.8-3.862,1.454s-2.562-2.215-2.892-2.943a.429.429,0,0,1,.111-.5C317.535,194.57,319.217,193.291,320.791,193.638Z" transform="translate(-259.416 -158.524)"/><path class="j" d="M75.52,94.551l36.1-.235c0-.25.01-.5.01-.752q0-.988-.049-1.965l-36.108.235L93.469,60.672q-1.147-.723-2.347-1.368L73.086,90.543,54.2,59.428Q53,60.08,51.86,60.811L70.712,91.866,33.948,92.1c-.018.485-.03.971-.03,1.46,0,.42.009.839.022,1.256l36.814-.239-18.475,32q1.151.716,2.355,1.353l18.51-32.06,19.039,31.362q1.178-.681,2.3-1.44Z" transform="translate(-27.776 -48.565)"/></svg>