<svg xmlns="http://www.w3.org/2000/svg" width="19.995" height="14" viewBox="0 0 19.995 14"><defs><style>.a{fill:#241600;}</style></defs><g transform="translate(0 0)"><path class="a" d="M10,14c-.062,0-6.26,0-7.824-.428A2.5,2.5,0,0,1,.412,11.81,26.42,26.42,0,0,1,0,7a26.513,26.513,0,0,1,.412-4.81A2.561,2.561,0,0,1,2.174.412C3.721,0,9.936,0,10,0s6.276,0,7.824.428a2.5,2.5,0,0,1,1.762,1.762A25.177,25.177,0,0,1,20,7.016a26.575,26.575,0,0,1-.411,4.81,2.5,2.5,0,0,1-1.762,1.762C16.275,14,10.061,14,10,14ZM8.066,4.067V9.933L13.158,7Z" transform="translate(0 0)"/></g></svg>